<svg xmlns="http://www.w3.org/2000/svg" viewBox="0 0 1934 1089"><defs><style>.cls-1{fill:#fcfcfc;}.cls-2{fill:#e7eeff;}.cls-3,.cls-5{fill:#f4f7ff;}.cls-4{fill:#ffb6b6;}.cls-5{stroke:#565759;}.cls-5,.cls-6,.cls-9{stroke-miterlimit:10;}.cls-6{fill:#272a30;stroke:#00120c;}.cls-7{fill:#ccc6c6;}.cls-8,.cls-9{fill:#6b6a7c;}.cls-9{stroke:#efe4e4;}.cls-10{fill:#2f2e41;}.cls-11{fill:#d8d6d6;}.cls-12{fill:#6c63ff;}</style></defs><g id="Layer_1" data-name="Layer 1"><rect class="cls-1" width="1934" height="1089"/><path class="cls-2" d="M5.15,4.11S382.8,58,422.87,448.46c0,0,60.64,187.69,251.23,180.12,0,0,210.33-24.39,352.43,442.63L5.11,1071.14" transform="translate(15.13 6.04)"/><path class="cls-3" d="M886.62,606c-10.84,86-70.59,139.73-118,182.3-39.33,35.34-114.34,102.74-212.94,107.23C365.19,904.24,183,673.62,220.23,560.06,237,508.87,285.89,519.58,404.06,408.4c81.17-76.35,81.23-103.15,128.68-119.49,114.93-39.55,241.7,73.84,249.71,81.2C801,387.11,902.45,480.26,886.62,606Z" transform="translate(15.13 6.04)"/></g><g id="labiko"><path class="cls-4" d="M1033.55,696.15" transform="translate(15.13 6.04)"/><line class="cls-5" x1="236.44" y1="642.81" x2="894.68" y2="645.46"/><path class="cls-6" d="M661,338.41l-5,14.13L670.11,357s12,1.77,12.91-30.92c0,0,10.85-28.28,22.88-30.34s.29-1.18.29-1.18-23.46,42.71,10.86,64.5c0,0-9.39-8.24-6.46-30l13.79.88,2.35-9.13,2.34,9.13,26.4-2.35s7.63,12.37-.29,23.27c0,0,35.2-48.31-26.11-65.09,0,0-2.34-16.79-19.06-12.08,0,0-24.35-21.5-39.6,8.54,0,0-22.3,18-21.12,23.27,0,0-2.94,27.68-6.46,33,0,0-1.76,4.12-10.26,4.71l19.06,8.25Z" transform="translate(15.13 6.04)"/><path class="cls-6" d="M717.05,359" transform="translate(15.13 6.04)"/><path class="cls-4" d="M717.63,359s19.22,20.33,37.55-7.8c0,0,6.16-14.73,0-23l-26.4,2.07-2-7.22-1.91,7.36-13.64-.59S706.05,348,717.63,359Z" transform="translate(15.13 6.04)"/><path class="cls-7" d="M726.14,363.59s-4.62-.89-6.16,3.09l.22,11.49s-22.44,15.9-23.76,18.11c0,0-40.26,35.79-58.08,89.69,0,0-12.1,36.22,57.42,29.6l-3.08-23.86-12.32-5.3,10.56-28.72,9.24,105.74-2.35,3.38s-11.29,8,97.83,23.42c0,0,8.5.4,10.36-12,.08-.53.15-1.09.2-1.67,1.32-14.13-26.4-46.83-22-58.31,0,0,7-2.21,13.2-25.19,0,0,11.88-76.87-21.12-102,0,0-6.6,2.21-23.76-14.14l-.44-12.37-9.35-1Z" transform="translate(15.13 6.04)"/><path class="cls-8" d="M690.06,424.11c-.23,1,.15,79.53.15,79.53l74.21,1.18-.59-81s-.58-5.89-6.45-6.19l-61-.14A8.17,8.17,0,0,0,690.06,424.11Z" transform="translate(15.13 6.04)"/><path class="cls-4" d="M685.66,493.18l4,22.39,27.57,1.91s12,15.46,18-7.07c0,0,1-15.61-16.72-8.39Z" transform="translate(15.13 6.04)"/><path class="cls-4" d="M736.55,467.56l17.46-6-20.1-26.95s3.82-18-12.9-15c0,0-15.55,12.37,1,21.5Z" transform="translate(15.13 6.04)"/><ellipse class="cls-9" cx="718.12" cy="435.53" rx="2.32" ry="2.49"/><path class="cls-7" d="M736.63,467.41s33,48.16,46.64,53L789,502.31a233.83,233.83,0,0,0-21.07-26.84c-4.71-5.17-9.38-9.83-13.91-14" transform="translate(15.13 6.04)"/><path class="cls-10" d="M696.22,567.55,682.14,574s-34-5.89-41.07,16.2c0,0-26.1,33.57,13.79,150.8l21.71-2.36,8.21-8.83-7.63-14.14,6.46-10.61-7-13-1.76-56s69.22,96.6,93.28,104.26l21.12-13.55-1.76-15.32-10-4.71-2.34-13.55-9.39-4.71-31.17-49h49.94a47.62,47.62,0,0,0,15.12-15.09c11.17-18,5.93-37.59,4.83-41.39Z" transform="translate(15.13 6.04)"/><path class="cls-10" d="M656,756.34l22.88-7.07,12.32,35.94-10,3.53-4.69-10-2.35,14.13-26.4,8.25s-5.87,3.54-7.63-11.78c0,0,14.08-14.14,15.84-19.44Z" transform="translate(15.13 6.04)"/><path class="cls-10" d="M778.26,751.18,793.88,733l29.48,23.84-6.57,8.32-9.28-6L813,772.38l-18,21.09s-3.1,6.13-12.71-5.9c0,0,4.43-19.49,3.11-24.92Z" transform="translate(15.13 6.04)"/><polygon class="cls-4" points="669.99 747.07 675.27 760.03 694.04 755.32 691.69 744.71 669.99 747.07"/><polygon class="cls-4" points="783.21 746.48 793.39 757.22 809.01 739.01 802.57 730.58 783.21 746.48"/><path class="cls-11" d="M336.3,632.42l13.2-22.09L346.86,590s-7.92-4.86-4-11.49S331,560,319.58,570.13s-.44-1.77-.44-1.77-14.52,5.74-15.4,60.08c-2.05-.94-37.93-89.73,25.52-205.43,0,0,15.62-5.74,22.22-32,0,0-12.1,2.21-10.56-8.62l7.7-9.94s-15.84-16.12-28.6,2c0,0-14.08,17.23,4.18,48.38L305.5,457s-2.86-62.74-37.62-75.77c0,0-15.84,1.77-14.3,15,0,0,5.72,4.2,5.5,13.25,0,0-.22,2.66-5.94,3.32,0,0-3.08,39.32,41.36,68.92,0,0-12.76,50.36-9.68,80.4,0,0-3.74-32.25-56.32-51,0,0-14.52-5.08-13.86,11.26,0,0,10.56,4,12.1,11.05,0,0,2.42,4.86-6.82,9,0,0,7,42.38,68.26,52l1,.16L301.1,633.3Z" transform="translate(15.13 6.04)"/><path class="cls-12" d="M394.23,471.75s-21.7-22.38-13.49-49.18c0,0,9.68-29.16,36.08-30.34,0,0,33.44-2.65,40.77,38,0,0,1.18,29.74-15.54,41.52V433.47s2.05-3.24-5.28-5H400.1a4.73,4.73,0,0,0-4.4,4.12Z" transform="translate(15.13 6.04)"/><path class="cls-12" d="M415.06,476.17l6.75-.29V457.32h5.86l.3-6.48-6.16-.59s-4.7-11.48,7.62-8.24l.3-6.78s-17.9-5-15.26,15h-5.28V457h5.58Z" transform="translate(15.13 6.04)"/><path class="cls-12" d="M474.31,343.93s-22-18-13.2-50.37c0,0,9.68-28.86,35.5-29.15,0,0,39.89-.89,40.18,39.76,0,0,3.82,25.62-15,40.64l-.29-37.7s.59-6.18-5.57-5.89l-37,.59s-4.4-.88-3.52,5.3Z" transform="translate(15.13 6.04)"/><ellipse class="cls-12" cx="527.57" cy="316.69" rx="3.52" ry="3.68"/><ellipse class="cls-12" cx="512.71" cy="333.44" rx="11.83" ry="12.37"/><path class="cls-12" d="M489.27,599.29c1,.65,8.22-3.83,8.22-3.83a15.46,15.46,0,0,1-10.71-10l3.67.3s-8.22-6.19-6.6-14.43l3.22,1s-6.45-5.6-.58-17.09c0,0,8.5,15,22.29,13.55,0,0,3.52-23.41,22.15-11.19,0,0,5.72-1.77,7.92-3.53l-2.35,6.18,5.57-1.47s-5,7.21-7.33,8.24c0,0,1.17,30.64-28.89,40.35,0,0,36.52,3.54,44-37.25,0,0,4.25-46.83-38.43-51.25,0,0-33.73,1.32-39.6,35.64C471.82,554.52,466,584,489.27,599.29Z" transform="translate(15.13 6.04)"/></g></svg>