<?xml version="1.0" encoding="utf-8"?>
<!-- Generator: Adobe Illustrator 26.2.1, SVG Export Plug-In . SVG Version: 6.00 Build 0)  -->
<svg version="1.1" xmlns="http://www.w3.org/2000/svg" xmlns:xlink="http://www.w3.org/1999/xlink" x="0px" y="0px"
	 viewBox="0 0 1920 1080" style="enable-background:new 0 0 1920 1080;" xml:space="preserve">
<style type="text/css">
	.st0{fill:#FCFCFC;}
	.st1{fill:#E7EEFF;}
	.st2{fill:#F4F7FF;}
	.st3{fill:#FFB6B6;}
	.st4{fill:#F4F7FF;stroke:#565759;stroke-miterlimit:10;}
	.st5{fill:#272A30;stroke:#00120C;stroke-miterlimit:10;}
	.st6{fill:#CCC6C6;}
	.st7{fill:#6B6A7C;}
	.st8{fill:#6B6A7C;stroke:#EFE4E4;stroke-miterlimit:10;}
	.st9{fill:#2F2E41;}
	.st10{fill:#D8D6D6;}
	.st11{fill:#6C63FF;}
</style>
<g id="Layer_1">
	<rect x="5.77" y="4.74" class="st0" width="1908.77" height="1072.34"/>
	<path class="st1" d="M5.15,4.11c0,0,357.44,53.94,395.37,445c0,0,57.4,187.95,237.8,180.37c0,0,199.08-24.42,333.58,443.27
		l-966.79-0.07"/>
	<path class="st2" d="M827.38,606.02c-10.84,86.04-70.59,139.73-117.96,182.3c-39.33,35.34-114.34,102.74-212.94,107.23
		C305.96,904.24,123.79,673.62,161,560.06c16.78-51.19,65.65-40.49,183.83-151.66c81.17-76.36,81.22-103.15,128.68-119.49
		c114.92-39.56,241.69,73.84,249.7,81.19C741.74,387.11,843.22,480.26,827.38,606.02z"/>
</g>
<g id="haj">
</g>
<g id="arc">
</g>
<g id="ruha">
</g>
<g id="kez">
</g>
<g id="lab">
</g>
<g id="cipo">
</g>
<g id="labiko">
	<path class="st3" d="M1033.55,696.15"/>
	<g>
		<g>
			<line class="st4" x1="157.99" y1="634.72" x2="816.23" y2="637.37"/>
			<g>
				<path class="st5" d="M597.7,336.36l-4.99,14.14l14.08,4.42c0,0,12.03,1.77,12.91-30.93c0,0,10.85-28.27,22.88-30.34
					c12.03-2.06,0.29-1.18,0.29-1.18s-23.47,42.71,10.85,64.5c0,0-9.39-8.25-6.45-30.04l13.79,0.88l2.35-9.13l2.35,9.13l26.4-2.36
					c0,0,7.63,12.37-0.29,23.27c0,0,35.2-48.3-26.11-65.09c0,0-2.35-16.79-19.07-12.08c0,0-24.35-21.5-39.6,8.54
					c0,0-22.29,17.97-21.12,23.27c0,0-2.93,27.69-6.45,32.99c0,0-1.76,4.12-10.27,4.71l19.07,8.25L597.7,336.36z"/>
				<path class="st5" d="M653.73,356.98"/>
				<path class="st3" d="M654.31,356.98c0,0,19.21,20.32,37.55-7.81c0,0,6.16-14.73,0-22.97l-26.4,2.06l-2.05-7.22l-1.91,7.36
					l-13.64-0.59C647.86,327.82,642.73,345.94,654.31,356.98z"/>
				<path class="st6" d="M662.82,361.55c0,0-4.62-0.88-6.16,3.09l0.22,11.49c0,0-22.44,15.9-23.76,18.11
					c0,0-40.26,35.79-58.08,89.68c0,0-12.1,36.23,57.42,29.6l-3.08-23.86l-12.32-5.3l10.56-28.72l9.24,105.74l-2.35,3.39
					c0,0-11.29,7.95,97.83,23.42c0,0,8.5,0.41,10.36-12.03c0.08-0.53,0.15-1.09,0.2-1.67c1.32-14.14-26.4-46.83-22-58.32
					c0,0,7.04-2.21,13.2-25.18c0,0,11.88-76.87-21.12-102.05c0,0-6.6,2.21-23.76-14.14l-0.44-12.37l-9.35-0.99L662.82,361.55z"/>
				<g>
					<g>
						<path class="st7" d="M626.74,422.07c-0.23,1.02,0.15,79.52,0.15,79.52l74.21,1.18l-0.59-81c0,0-0.59-5.89-6.45-6.19
							l-61.01-0.15C633.05,415.44,628.06,416.18,626.74,422.07z"/>
						<g>
							<path class="st3" d="M622.34,491.14l3.96,22.38l27.57,1.91c0,0,12.03,15.46,18.04-7.07c0,0,1.03-15.61-16.72-8.39
								L622.34,491.14z"/>
							<path class="st3" d="M673.23,465.51l17.45-6.04l-20.09-26.95c0,0,3.81-17.97-12.91-15.02c0,0-15.55,12.37,1.03,21.5
								L673.23,465.51z"/>
						</g>
					</g>
					<path class="st8" d="M641.99,427.45c0,1.37-1.04,2.49-2.32,2.49c-1.28,0-2.32-1.11-2.32-2.49s1.04-2.49,2.32-2.49
						C640.95,424.96,641.99,426.07,641.99,427.45z"/>
				</g>
				<path class="st6" d="M673.31,465.37c0,0,33,48.16,46.64,53.02l5.72-18.11c-5.66-8.42-12.6-17.55-21.07-26.84
					c-4.71-5.17-9.39-9.83-13.92-14.03"/>
			</g>
			<path class="st9" d="M632.9,565.51l-14.08,6.48c0,0-34.03-5.89-41.07,16.2c0,0-26.11,33.58,13.79,150.8l21.71-2.36l8.21-8.84
				l-7.63-14.14l6.45-10.6l-7.04-12.96l-1.76-55.96c0,0,69.23,96.61,93.28,104.26l21.12-13.55l-1.76-15.32l-9.97-4.71l-2.35-13.55
				l-9.39-4.71c-10.39-16.32-20.78-32.64-31.17-48.97c16.65,0,33.29,0,49.94,0c4.2-2.65,10.32-7.36,15.11-15.09
				c11.18-18.02,5.93-37.59,4.83-41.39L632.9,565.51z"/>
			<path class="st9" d="M592.71,754.3l22.88-7.07l12.32,35.93l-9.97,3.53l-4.69-10.01l-2.35,14.14l-26.4,8.25
				c0,0-5.87,3.53-7.63-11.78c0,0,14.08-14.14,15.84-19.44V754.3z"/>
			<path class="st9" d="M714.94,749.14l15.62-18.21l29.48,23.84l-6.57,8.32l-9.28-5.97l5.51,13.22l-17.98,21.09
				c0,0-3.09,6.13-12.7-5.9c0,0,4.43-19.49,3.11-24.92L714.94,749.14z"/>
			<polygon class="st3" points="591.54,738.98 596.82,751.94 615.59,747.23 613.25,736.63 			"/>
			<polygon class="st3" points="704.77,738.4 714.94,749.14 730.56,730.93 724.13,722.49 			"/>
		</g>
		<g>
			<path class="st10" d="M272.98,630.38l13.2-22.09l-2.64-20.32c0,0-7.92-4.86-3.96-11.49c3.96-6.63-11.88-18.56-23.32-8.39
				c-11.44,10.16-0.44-1.77-0.44-1.77s-14.52,5.74-15.4,60.08c-2.05-0.94-37.93-89.73,25.52-205.43c0,0,15.62-5.74,22.22-32.03
				c0,0-12.1,2.21-10.56-8.61l7.7-9.94c0,0-15.84-16.13-28.6,1.99c0,0-14.08,17.23,4.18,48.38l-18.7,34.24
				c0,0-2.86-62.73-37.62-75.77c0,0-15.84,1.77-14.3,15.02c0,0,5.72,4.2,5.5,13.25c0,0-0.22,2.65-5.94,3.31
				c0,0-3.08,39.32,41.36,68.92c0,0-12.76,50.36-9.68,80.41c0,0-3.74-32.25-56.32-51.03c0,0-14.52-5.08-13.86,11.27
				c0,0,10.56,3.98,12.1,11.04c0,0,2.42,4.86-6.82,9.06c0,0,6.96,42.38,68.26,51.97c0.35,0.05,0.69,0.11,1.04,0.16l11.88,38.66
				L272.98,630.38z"/>
			<path class="st11" d="M330.91,469.71c0,0-21.71-22.38-13.49-49.19c0,0,9.68-29.16,36.08-30.34c0,0,33.44-2.65,40.77,37.99
				c0,0,1.17,29.75-15.55,41.53v-38.29c0,0,2.05-3.24-5.28-5.01h-36.67c0,0-3.52,0-4.4,4.12L330.91,469.71z"/>
			<path class="st11" d="M351.74,474.13l6.75-0.29v-18.56h5.87l0.29-6.48l-6.16-0.59c0,0-4.69-11.49,7.63-8.25l0.29-6.77
				c0,0-17.89-5.01-15.25,15.02h-5.28v6.77h5.57L351.74,474.13z"/>
			<path class="st11" d="M410.99,341.89c0,0-22-17.97-13.2-50.36c0,0,9.68-28.86,35.49-29.16c0,0,39.89-0.88,40.19,39.76
				c0,0,3.81,25.62-14.96,40.64l-0.29-37.7c0,0,0.59-6.19-5.57-5.89l-36.96,0.59c0,0-4.4-0.88-3.52,5.3L410.99,341.89z"/>
			<ellipse class="st11" cx="449.13" cy="308.6" rx="3.52" ry="3.68"/>
			<ellipse class="st11" cx="434.26" cy="325.36" rx="11.83" ry="12.37"/>
			<path class="st11" d="M425.95,597.24c0.99,0.65,8.21-3.83,8.21-3.83s-7.63-1.47-10.71-10.01l3.67,0.29c0,0-8.21-6.19-6.6-14.43
				l3.23,1.03c0,0-6.45-5.6-0.59-17.08c0,0,8.51,15.02,22.29,13.55c0,0,3.52-23.42,22.15-11.19c0,0,5.72-1.77,7.92-3.53l-2.35,6.19
				l5.57-1.47c0,0-4.99,7.22-7.33,8.25c0,0,1.17,30.63-28.89,40.35c0,0,36.52,3.53,44-37.26c0,0,4.25-46.83-38.43-51.25
				c0,0-33.73,1.33-39.6,35.64C408.5,552.47,402.63,581.93,425.95,597.24z"/>
		</g>
	</g>
</g>
</svg>
