<?xml version="1.0" encoding="utf-8"?>
<!-- Generator: Adobe Illustrator 26.2.1, SVG Export Plug-In . SVG Version: 6.00 Build 0)  -->
<svg version="1.1" id="Réteg_1" xmlns="http://www.w3.org/2000/svg" xmlns:xlink="http://www.w3.org/1999/xlink" x="0px" y="0px"
	 viewBox="0 0 512 512" style="enable-background:new 0 0 512 512;" xml:space="preserve">
<style type="text/css">
	.st0{fill:#585EA7;}
</style>
<path class="st0" d="M131.5,461.7c5.8,3.8,47.9-22.4,47.9-22.4s-44.5-8.6-62.5-58.5l21.4,1.7c0,0-47.9-36.1-38.5-84.3l18.8,6
	c0,0-37.7-32.7-3.4-99.8c0,0,49.6,87.7,130.1,79.1c0,0,20.5-136.7,129.2-65.4c0,0,33.4-10.3,46.2-20.6l-13.7,36.1l32.5-8.6
	c0,0-29.1,42.1-42.8,48.2c0,0,6.8,178.9-168.6,235.6c0,0,213.1,20.6,256.8-217.6c15.5-99-18.6-194.6-90.5-247.1
	C343.6,7.2,288.5,2.6,262,2.4C246.6,2.2,150.2,2.8,83,79.8c-40.6,46.5-50.5,97.8-53.4,120.5C29.7,200.3-4.5,372.2,131.5,461.7z"/>
</svg>
